{"title":"Koffee With Karan - Season 4 - Deepika Padukone and Priyanka Cho","uid":9447994,"size":280125940,"categoryP":"video","categoryS":"tv_shows","magnet":"?xt=urn:btih:1e0c67ba81e6e8d468be7648088d37c2ab816664&amp;dn=Koffee+With+Karan+-+Season+4+-+Deepika+Padukone+and+Priyanka+Cho&amp;tr=udp%3A%2F%2Ftracker.openbittorrent.com%3A80&amp;tr=udp%3A%2F%2Fopen.demonii.com%3A1337&amp;tr=udp%3A%2F%2Ftracker.coppersurfer.tk%3A6969&amp;tr=udp%3A%2F%2Fexodus.desync.com%3A6969","seeders":5,"leechers":0,"uploader":"ashish.p","files":1,"time":1389124851,"description":"General\n\nComplete name : Koffee With Karan - Season 4 - Deepika Padukone and Priyanka Chopra -AshishRocks- { DAKU RG }\nFormat :\tMPEG-4\nFormat profile : Base Media\nCodec ID : isom\nFile size :\t267 MiB\nDuration :\t43mn 39s\nOverall bit rate mode : Variable\nOverall bit rate : 855 Kbps\nEncoded date : UTC 2014-01-04 13:57:21\nTagged date :\tUTC 2014-01-04 13:57:21\n\nVideo\n\nID :\t1\nFormat :\tAVC\nFormat/Info : Advanced Video Codec\nFormat profile : &lt;a class=&quot;__cf_email__&quot; href=&quot;/cdn-cgi/l/email-protection&quot; data-cfemail=&quot;2f624e46416f631c011f&quot;&gt;[email&amp;#160;protected]&lt;/a&gt;&lt;script cf-hash='f9e31' type=&quot;text/javascript&quot;&gt;\n/* &lt;![CDATA[ */!function(){try{var t=&quot;currentScript&quot;in document?document.currentScript:function(){for(var t=document.getElementsByTagName(&quot;script&quot;),e=t.length;e--;)if(t[e].getAttribute(&quot;cf-hash&quot;))return t[e]}();if(t&amp;&amp;t.previousSibling){var e,r,n,i,c=t.previousSibling,a=c.getAttribute(&quot;data-cfemail&quot;);if(a){for(e=&quot;&quot;,r=parseInt(a.substr(0,2),16),n=2;a.length-n;n+=2)i=parseInt(a.substr(n,2),16)^r,e+=String.fromCharCode(i);e=document.createTextNode(e),c.parentNode.replaceChild(e,c)}}}catch(u){}}();/* ]]&gt; */&lt;/script&gt;\nFormat settings, CABAC :\tYes\nFormat settings, ReFrames : 3 frames\nCodec ID : avc1\nCodec ID/Info : Advanced Video Coding\nDuration :\t43mn 39s\nBit rate : 727 Kbps\nWidth : 854 pixels\nHeight : 480 pixels\nDisplay aspect ratio : 16:9\nFrame rate mode : Constant\nFrame rate : 25.000 fps\nColor space : YUV\nChroma subsampling : 4:2:0\nBit depth : 8 bits\nScan type : Progressive\nBits/(Pixel*Frame) :\t0.071\nStream size : 227 MiB (85%)\nEncoded date : UTC 2014-01-04 13:57:21\nTagged date :\tUTC 2014-01-04 13:57:21\n\nAudio\n\nID : 2\nFormat : AAC\nFormat/Info : Advanced Audio Codec\nFormat profile : LC\nCodec ID : 40\nDuration :\t43mn 39s\nBit rate mode :\tVariable\nBit rate :\t126 Kbps\nChannel(s) : 2 channels\nChannel positions :\tFront: L R\nSampling rate : 44.1 KHz\nCompression mode : Lossy\nStream size : 39.2 MiB (15%)\nEncoded date : UTC 2014-01-04 13:57:17\nTagged date : UTC 2014-01-04 13:57:17","torrent":{"xt":"urn:btih:1e0c67ba81e6e8d468be7648088d37c2ab816664","amp;dn":"Koffee+With+Karan+-+Season+4+-+Deepika+Padukone+and+Priyanka+Cho","amp;tr":["udp%3A%2F%2Ftracker.openbittorrent.com%3A80","udp%3A%2F%2Fopen.demonii.com%3A1337","udp%3A%2F%2Ftracker.coppersurfer.tk%3A6969","udp%3A%2F%2Fexodus.desync.com%3A6969"],"infoHash":"1e0c67ba81e6e8d468be7648088d37c2ab816664","infoHashBuffer":{"type":"Buffer","data":[30,12,103,186,129,230,232,212,104,190,118,72,8,141,55,194,171,129,102,100]},"announce":[],"urlList":[]}}